<svg width="22" height="24" viewBox="0 0 22 24" fill="none" xmlns="http://www.w3.org/2000/svg">
<path d="M22 4.99909C22 2.23809 19.7615 0 17 0H11H5C2.2385 0 0 2.23809 0 4.99909V17.0009C0 19.7619 2.2385 22 5 22H11H17C19.7615 22 22 19.7619 22 17.0009V4.99909Z" fill="#98C900"/>
<path opacity="0.3" d="M12 24C17.5228 24 22 23.3284 22 22.5C22 21.6716 17.5228 21 12 21C6.47715 21 2 21.6716 2 22.5C2 23.3284 6.47715 24 12 24Z" fill="black"/>
<path opacity="0.3" d="M2.005 1H2C0.88 1.845 0.125 3.145 0.0149999 4.625C0.00499987 4.745 0 4.875 0 5V11C1.3805 11 2.5 9.8805 2.5 8.5V5C2.5 4.946 2.5015 4.8895 2.5085 4.81C2.5595 4.1225 2.8975 3.485 3.4395 3.0475C3.4635 3.031 3.487 3.0135 3.5105 2.996C3.9405 2.6715 4.4555 2.5 5 2.5H7.5C8.8805 2.5 10 1.3805 10 0H5C3.875 0 2.84 0.37 2.005 1Z" fill="white"/>
<path opacity="0.15" d="M22 17V6C20.6195 6 19.5 7.119 19.5 8.5V17C19.5 18.3785 18.3785 19.5 17 19.5H14.5C13.1195 19.5 12 20.619 12 22H17C19.7615 22 22 19.7615 22 17Z" fill="black"/>
<path d="M8.3636 16.5112L4.14887 11.8984C3.95038 11.6813 3.95038 11.3289 4.14887 11.1118L5.58628 9.53875C5.78476 9.32166 6.10674 9.32166 6.30523 9.53875L9.37254 12.8954L15.5862 5.18826C15.7716 4.95808 16.0931 4.93572 16.3036 5.13917L17.828 6.61133C18.0385 6.81479 18.0585 7.16605 17.873 7.39623L10.585 16.4354C10.0035 17.157 8.98556 17.1919 8.3636 16.5112Z" fill="#EDFF9C"/>
</svg>
