<?xml version="1.0" standalone="no"?>
<!DOCTYPE svg PUBLIC "-//W3C//DTD SVG 20010904//EN"
 "http://www.w3.org/TR/2001/REC-SVG-20010904/DTD/svg10.dtd">
<svg version="1.0" xmlns="http://www.w3.org/2000/svg"
 width="700.000000pt" height="604.000000pt" viewBox="0 0 700.000000 604.000000"
 preserveAspectRatio="xMidYMid meet">

<g transform="translate(0.000000,604.000000) scale(0.100000,-0.100000)"
fill="#000000" stroke="none">
<path d="M3305 6004 c-192 -19 -259 -29 -390 -55 -443 -89 -918 -317 -1282
-615 -597 -489 -991 -1202 -1085 -1964 -16 -135 -16 -525 0 -660 82 -664 384
-1283 862 -1760 677 -677 1608 -987 2539 -844 298 45 599 145 887 293 695 357
1226 973 1481 1716 123 360 175 779 143 1155 -34 396 -134 745 -318 1105 -444
868 -1302 1479 -2262 1610 -110 15 -491 28 -575 19z m490 -379 c330 -38 607
-120 897 -266 868 -435 1408 -1325 1408 -2319 0 -1456 -1144 -2600 -2600
-2600 -1253 0 -2306 855 -2549 2070 -99 496 -52 1044 129 1500 354 894 1144
1498 2110 1614 157 19 446 19 605 1z"/>
<path d="M2200 4314 c-80 -35 -130 -111 -130 -199 0 -93 36 -156 115 -198 l40
-22 1280 -3 c895 -2 1295 0 1331 8 60 13 117 56 144 111 22 43 27 139 9 186
-15 40 -67 92 -114 114 -38 18 -94 19 -1340 18 -1139 0 -1304 -2 -1335 -15z"/>
<path d="M2215 3249 c-45 -13 -105 -67 -126 -113 -24 -53 -24 -139 0 -192 22
-49 78 -97 130 -113 52 -15 2578 -16 2634 0 86 24 147 110 147 209 0 99 -61
185 -147 209 -47 13 -2593 13 -2638 0z"/>
<path d="M2230 2181 c-105 -32 -160 -106 -160 -216 0 -63 22 -115 67 -157 64
-62 -21 -58 1398 -58 1419 0 1334 -4 1398 58 46 44 67 94 67 162 0 103 -61
185 -156 209 -50 13 -2573 14 -2614 2z"/>
</g>
</svg>
